<svg xmlns="http://www.w3.org/2000/svg" xmlns:xlink="http://www.w3.org/1999/xlink" xmlns:lucid="lucid" width="900" height="340"><g transform="translate(-180 -220)" lucid:page-tab-id="0_0"><path d="M220 260h820v260H220z" stroke="#fff" stroke-width="2" fill-opacity="0"/><use xlink:href="#a" transform="matrix(1,0,0,1,225,265) translate(20.9375 151.66666666666669)"/><use xlink:href="#b" transform="matrix(1,0,0,1,225,265) translate(148.95833333333334 151.66666666666669)"/><use xlink:href="#c" transform="matrix(1,0,0,1,225,265) translate(725.0520833333334 151.66666666666669)"/><defs><path d="M719-20c0 191 23 231 196 231v131c-275 13-350-81-350-365 0-235 5-431-207-430v-163c73 0 122-27 158-74 42-55 51-222 49-357-4-283 74-378 350-364v131c-172 0-195 40-196 231v64c-3 260-41 373-211 450 186 76 211 232 211 515" id="d"/><use transform="matrix(0.052083333333333336,0,0,0.052083333333333336,0,0)" xlink:href="#d" id="a"/><path d="M592-311c-2 114 51 200 156 200 85 0 170-19 253-57l27 121C923 1 820 25 719 25c-186 0-279-98-279-295v-637H240v-135h200v-285h152v285h354v135H592v596" id="e"/><path d="M233-774c0-203 206-293 431-293 84 0 177 14 280 43l-35 131c-87-29-170-43-247-43-138-1-275 41-275 156 0 30 9 58 34 78 98 81 345 103 453 176 76 51 130 115 130 231 0 215-214 322-443 322-128 0-234-19-317-58l30-135c87 41 181 62 281 62 144 0 293-52 293-177 0-36-13-69-40-97-28-49-299-119-369-144-108-39-206-109-206-252" id="f"/><path d="M487-938c0-65 54-119 119-119 66 0 121 54 121 119s-55 119-121 119c-65 0-119-54-119-119zm0 836c0-66 54-119 119-119 66 0 121 53 121 119 0 65-55 118-121 118-65 0-119-53-119-118" id="g"/><path fill="#0c7cba" d="M485-1042c-2-268 49-393 303-394 72 0 152 14 240 41l-41 127c-74-21-140-32-199-32-146 0-142 89-147 258h350v135H641V0H485v-907H223v-135h262" id="h"/><path fill="#0c7cba" d="M145-522c0-307 172-545 469-545 296 0 469 239 469 545 0 308-172 549-469 549-298 0-469-240-469-549zm164 2c0 210 103 411 305 411 199 0 306-205 306-411 0-217-100-412-306-412-208 0-305 192-305 412" id="i"/><path fill="#0c7cba" d="M793-909c-150 0-257 142-312 235V0H326v-1042h155v211c120-239 312-290 553-183l-63 150c-69-30-128-45-178-45" id="j"/><path fill="#0c7cba" d="M340-520c0 222 153 411 375 411 88 0 179-17 272-51l27 125C923 6 824 27 715 27c-324 0-539-223-539-547 0-322 217-547 535-547 105 0 204 18 299 55l-41 129c-95-33-180-49-256-49-234-2-373 171-373 412" id="k"/><path fill="#0c7cba" d="M627-1067c255 1 431 226 422 502v49H334c-8 217 149 407 354 407 95 0 192-17 293-51l27 125C916 6 809 27 686 27c-314 0-516-228-516-551 0-303 173-543 457-543zm252 424c8-145-114-289-246-289-166 0-282 128-289 289h535" id="l"/><g id="b"><use transform="matrix(0.052083333333333336,0,0,0.052083333333333336,0,0)" xlink:href="#e"/><use transform="matrix(0.052083333333333336,0,0,0.052083333333333336,64.01041666666667,0)" xlink:href="#f"/><use transform="matrix(0.052083333333333336,0,0,0.052083333333333336,128.02083333333334,0)" xlink:href="#g"/><use transform="matrix(0.052083333333333336,0,0,0.052083333333333336,192.03125,0)" xlink:href="#h"/><use transform="matrix(0.052083333333333336,0,0,0.052083333333333336,256.0416666666667,0)" xlink:href="#i"/><use transform="matrix(0.052083333333333336,0,0,0.052083333333333336,320.05208333333337,0)" xlink:href="#j"/><use transform="matrix(0.052083333333333336,0,0,0.052083333333333336,384.06250000000006,0)" xlink:href="#k"/><use transform="matrix(0.052083333333333336,0,0,0.052083333333333336,448.0729166666668,0)" xlink:href="#l"/></g><path d="M659-1047c0 227-7 433 207 431v163c-72 0-122 26-158 73-42 55-51 221-49 357 5 284-73 379-350 365V211c173 0 196-40 197-231v-64c3-260 41-373 211-451-187-75-211-232-211-514 0-191-24-231-197-231v-131c275-14 350 81 350 364" id="m"/><use transform="matrix(0.052083333333333336,0,0,0.052083333333333336,0,0)" xlink:href="#m" id="c"/></defs></g></svg>